# xmcd CD database file
# Copyright (C) 1993-1998 Ti Kan
#
# Track frame offsets:
# 150
# 21645
# 38827
# 57964
# 80712
# 116392
# 131975
# 152727
# 172510
# 196387
#
# Disc length: 2880 seconds
# Revision: 0
# Processed by: cddbd v1.4b41PL1 Copyright (c) Steve Scherf et al.
# Submitted via: CDSpectrumPro v3.2.328
#
DISCID=820b3e0a
DTITLE=The Todd T. Band - Nothin' Comes Easy
DYEAR=1900
DGENRE=
TTITLE0=Roses
TTITLE1=Good Reason
TTITLE2=Desire and Fear
TTITLE3=Nothin' Comes Easy
TTITLE4=You Might Think
TTITLE5=Sometimes
TTITLE6=I Tried
TTITLE7=I Meant It
TTITLE8=Cryin' For My Baby
TTITLE9=I Hate My Job
EXTD=
EXTT0=
EXTT1=
EXTT2=
EXTT3=
EXTT4=
EXTT5=
EXTT6=
EXTT7=
EXTT8=
EXTT9=
PLAYORDER=
